Coordinates
version=1
nRows=6
nColumns=34
inDegrees=yes

Units are S.I. units (second, meters, Newtons, ...)
If the header above contains a line with 'inDegrees', this indicates whether rotational values are in degrees (yes) or radians (no).

endheader
time	pelvis_tilt	pelvis_list	pelvis_rotation	pelvis_tx	pelvis_ty	pelvis_tz	hip_flexion_r	hip_adduction_r	hip_rotation_r	knee_angle_r	ankle_angle_r	subtalar_angle_r	mtp_angle_r	hip_flexion_l	hip_adduction_l	hip_rotation_l	knee_angle_l	ankle_angle_l	subtalar_angle_l	mtp_angle_l	lumbar_extension	lumbar_bending	lumbar_rotation	arm_flex_r	arm_add_r	arm_rot_r	elbow_flex_r	pro_sup_r	arm_flex_l	arm_add_l	arm_rot_l	elbow_flex_l	pro_sup_l
      1.78333330	      4.80247400	     -0.35582763	     12.36590198	     -0.11561807	      1.31227255	     -0.07361930	     -6.36016489	      0.55034903	      2.72856510	      1.69972056	      9.20605093	     -9.54884007	      0.00000000	     -6.65968950	     -3.29057106	      1.00559999	      0.03034321	      5.55294023	     -6.26041862	      0.00000000	    -13.29130159	      3.06827619	      1.76597538	      6.61204393	     -4.14403589	      8.79559036	     29.84054921	    104.41878395	      8.58812735	     -4.47508503	      8.31920634	     27.15815216	     99.75785606
      1.80000000	      4.80687140	     -0.35190532	     12.36549029	     -0.11520174	      1.31482440	     -0.07388891	     -6.35606539	      0.54727599	      2.72937297	      1.69963682	      9.20621002	     -9.54872418	      0.00000000	     -6.65478706	     -3.29670648	      1.00472232	      0.02906071	      5.55306540	     -6.26147523	      0.00000000	    -13.28982532	      3.06793953	      1.76571151	      6.61230915	     -4.14377318	      8.79563600	     29.84096688	    104.41905602	      8.58885863	     -4.47485362	      8.31901960	     27.15878984	     99.75821079
      1.81666670	      4.97170161	     -0.32056096	     12.36539610	     -0.11457328	      1.31302608	     -0.07489362	     -6.45811612	      0.51214667	      2.71497950	      1.92804259	      9.15986267	     -9.53953396	      0.00000000	     -6.75902456	     -3.29204740	      0.89088481	      0.23054648	      5.54374729	     -6.35175295	      0.00000000	    -13.22945915	      3.06953448	      1.73909873	      6.51304097	     -4.12864013	      8.80513685	     29.84229869	    104.44309097	      8.53170506	     -4.43659863	      8.30985150	     27.18905612	     99.78935226
      1.83333330	      4.96391714	     -0.32527814	     12.34883259	     -0.11411970	      1.31432733	     -0.07401133	     -6.49822725	      0.50669371	      2.70842135	      1.94778877	      9.16094202	     -9.54303141	      0.00000000	     -6.73455851	     -3.29670137	      0.88853992	      0.22350630	      5.54468158	     -6.35524071	      0.00000000	    -13.22977375	      3.06974457	      1.73764387	      6.51236744	     -4.13143722	      8.80480786	     29.84314849	    104.44431233	      8.52915281	     -4.43266706	      8.30948412	     27.19082810	     99.79109391
      1.85000000	      4.96768752	     -0.34249394	     12.33249785	     -0.11440255	      1.31350019	     -0.07440357	     -6.52839891	      0.49456795	      2.70054601	      1.96549270	      9.16202472	     -9.54772343	      0.00000000	     -6.72241152	     -3.30015151	      0.88586786	      0.22297470	      5.54563507	     -6.35809591	      0.00000000	    -13.22649616	      3.06725763	      1.73771819	      6.51125466	     -4.13177671	      8.80483887	     29.84411515	    104.44524129	      8.52574698	     -4.43058274	      8.30912572	     27.19200515	     99.79238327
      1.86666670	      5.20533025	     -0.33899314	     12.23900012	     -0.11517272	      1.31142725	     -0.07369603	     -6.71451255	      0.54201171	      2.55962842	      2.15315736	      9.30556829	     -9.67792935	      0.00000000	     -6.89007035	     -3.32240440	      0.75889738	      0.41557608	      5.68359903	     -6.54509933	      0.00000000	    -13.23387570	      3.09736809	      1.78810742	      6.43289872	     -4.17789290	      8.81297128	     29.89058942	    104.51722894	      8.39901933	     -4.37933326	      8.24681842	     27.30698918	     99.88824691
